<svg xmlns="http://www.w3.org/2000/svg" viewBox="0 0 24 24"><path d="M18.92292,4.03833a1.38461,1.38461,0,0,1,1.38461,1.38461V8.99988H17.99982V7.6922a.69241.69241,0,0,0-.61157-.68765l-.08074-.00466H13.69215a.69242.69242,0,0,0-.68765.61157l-.00466.08073V8.99988h-2V7.6922a.6924.6924,0,0,0-.61157-.68764l-.08074-.00466H6.69218a.69243.69243,0,0,0-.68765.61157l-.00465.08073V8.99988H3.69215V5.42294A1.38461,1.38461,0,0,1,5.07676,4.03833ZM20.99984,19.9614H19.55c-.66376,0-1.55018-.57843-1.55018-1.29162V16H5.99988v2.6698c0,.68077-.80767,1.23876-1.45839,1.28808l-.09179.00354H2.99984V11.38449A1.38462,1.38462,0,0,1,4.38445,9.99987H19.61522a1.38462,1.38462,0,0,1,1.38462,1.38462Z"/></svg>
